<svg width="424" height="191" viewBox="0 0 424 191" fill="none" xmlns="http://www.w3.org/2000/svg">
<g clip-path="url(#clip0_2_44)">
<path d="M40.616 191V3.07999H78.432C90.96 3.07999 101.323 4.78132 109.52 8.18399C117.717 11.432 123.749 16.768 127.616 24.192C131.637 31.4613 133.648 41.0507 133.648 52.96C133.648 60.2293 132.875 66.88 131.328 72.912C129.781 78.7893 127.307 83.816 123.904 87.992C120.501 92.0133 116.016 94.952 110.448 96.808L137.128 191H111.84L87.248 102.84H66.832V191H40.616ZM66.832 84.048H76.808C84.232 84.048 90.264 83.12 94.904 81.264C99.544 79.408 102.947 76.2373 105.112 71.752C107.277 67.2667 108.36 61.0027 108.36 52.96C108.36 41.9787 106.349 34.0907 102.328 29.296C98.3067 24.3467 90.3413 21.872 78.432 21.872H66.832V84.048Z" fill="white"/>
<path d="M348.264 192.111C335.062 193.732 324.437 192.232 316.39 187.61C308.496 182.97 302.516 176.146 298.45 167.14C294.537 158.115 291.873 147.846 290.46 136.332L282.373 70.4747C280.828 57.8866 280.862 46.7407 282.475 37.037C284.242 27.3146 288.422 19.4774 295.015 13.5255C301.743 7.4013 311.708 3.52868 324.91 1.90765C336.577 0.475116 346.052 1.49336 353.334 4.96239C360.77 8.41256 366.437 13.9499 370.334 21.5745C374.384 29.1803 377.097 38.5864 378.473 49.7929L380.283 64.5302L355.644 67.5555L354.032 54.4301C353.184 47.522 352.056 41.5053 350.647 36.3801C349.373 31.0825 347.022 27.1638 343.594 24.624C340.166 22.0842 334.844 21.2573 327.629 22.1432C320.26 23.048 315.085 25.3196 312.103 28.9581C309.103 32.443 307.424 37.1682 307.065 43.1337C306.842 48.9268 307.201 55.6612 308.144 63.3369L317.219 137.254C318.369 146.618 320.051 153.969 322.265 159.307C324.46 164.492 327.464 168.019 331.277 169.888C335.091 171.757 339.991 172.324 345.978 171.589C353.04 170.722 357.917 168.565 360.611 165.117C363.285 161.517 364.667 156.906 364.756 151.285C364.845 145.664 364.437 139.17 363.532 131.801L361.836 117.985L386.475 114.96L388.171 128.776C389.566 140.136 389.419 150.361 387.73 159.45C386.022 168.386 382.093 175.725 375.941 181.467C369.771 187.055 360.545 190.603 348.264 192.111Z" fill="white" fill-opacity="0.78"/>
<path d="M166.976 191L136.352 3.07999H158.16L178.344 138.104L203.632 3.77599H222.192L247.712 138.8L267.432 3.07999H288.776L258.616 191H239.592L213.376 51.8L186.928 191H166.976Z" fill="white"/>
</g>
<defs>
<clipPath id="clip0_2_44">
<rect width="424" height="191" fill="white"/>
</clipPath>
</defs>
</svg>
