<svg width="509" height="238" viewBox="0 0 509 238" fill="none" xmlns="http://www.w3.org/2000/svg">
<g clip-path="url(#clip0_2_25)">
<path d="M136.616 189V1.07999H174.432C186.96 1.07999 197.323 2.78132 205.52 6.18399C213.717 9.43199 219.749 14.768 223.616 22.192C227.637 29.4613 229.648 39.0507 229.648 50.96C229.648 58.2293 228.875 64.88 227.328 70.912C225.781 76.7893 223.307 81.816 219.904 85.992C216.501 90.0133 212.016 92.952 206.448 94.808L233.128 189H207.84L183.248 100.84H162.832V189H136.616ZM162.832 82.048H172.808C180.232 82.048 186.264 81.12 190.904 79.264C195.544 77.408 198.947 74.2373 201.112 69.752C203.277 65.2667 204.36 59.0027 204.36 50.96C204.36 39.9787 202.349 32.0907 198.328 27.296C194.307 22.3467 186.341 19.872 174.432 19.872H162.832V82.048Z" fill="white"/>
<path d="M295.26 28.9109C307.315 23.2895 317.883 21.4332 326.965 23.342C335.906 25.3162 343.702 29.9576 350.353 37.2664C356.863 44.6406 362.57 53.5842 367.472 64.0974L395.514 124.233C400.874 135.727 404.286 146.338 405.75 156.065C407.074 165.858 405.52 174.603 401.089 182.301C396.583 190.205 388.302 196.967 376.247 202.588C365.594 207.556 356.268 209.516 348.27 208.467C340.132 207.483 333.032 203.968 326.97 197.921C320.767 191.939 315.28 183.832 310.508 173.599L304.233 160.142L326.731 149.651L332.32 161.636C335.262 167.944 338.194 173.317 341.117 177.756C343.966 182.401 347.413 185.401 351.458 186.758C355.504 188.114 360.82 187.255 367.409 184.183C374.137 181.046 378.357 177.286 380.068 172.904C381.845 168.663 381.982 163.65 380.479 157.866C378.902 152.287 376.479 145.993 373.21 138.985L341.737 71.4901C337.75 62.9393 333.879 56.4676 330.124 52.075C326.434 47.8225 322.487 45.3966 318.283 44.7974C314.078 44.1981 309.243 45.1731 303.776 47.7224C297.328 50.7291 293.356 54.2879 291.859 58.3988C290.429 62.6497 290.539 67.4618 292.192 72.835C293.844 78.2081 296.239 84.2589 299.376 90.9873L305.259 103.603L282.761 114.094L276.878 101.478C272.041 91.1054 269.021 81.3356 267.819 72.169C266.681 63.1426 268.151 54.9486 272.227 47.5869C276.368 40.3654 284.046 34.1401 295.26 28.9109Z" fill="white" fill-opacity="0.78"/>
<path d="M205.976 238L175.352 50.08H197.16L217.344 185.104L242.632 50.776H261.192L286.712 185.8L306.432 50.08H327.776L297.616 238H278.592L252.376 98.8L225.928 238H205.976Z" fill="white"/>
<path d="M217.5 185L225.5 141.5L221 130C218.167 117.667 211.9 93.2 209.5 94C207.1 94.8 204.833 95.3333 204 95.5L217.5 185Z" fill="#2E323F"/>
<path d="M200.5 71C198.5 79 186.333 81.3333 180.5 81.5L173.5 76.5V47.5L198 45C199.667 50.3333 202.5 63 200.5 71Z" fill="#2E323F"/>
</g>
<defs>
<clipPath id="clip0_2_25">
<rect width="509" height="238" fill="white"/>
</clipPath>
</defs>
</svg>
